<svg width="31" height="42" viewBox="0 0 31 42" fill="none" xmlns="http://www.w3.org/2000/svg">
<path d="M5 12L15 7L25 12L15 17L5 12Z" stroke="#33363F" stroke-linecap="round" stroke-linejoin="round"/>
<path d="M25 12V17" stroke="#33363F" stroke-linecap="round" stroke-linejoin="round"/>
<path d="M9 14V20.4286C9 20.4286 9.54545 23 15 23C20.4545 23 21 20.4286 21 20.4286V14" stroke="#33363F" stroke-linecap="round" stroke-linejoin="round"/>
<path d="M2.83 38V31H4.125V33.775H7.085V31H8.38V38H7.085V35.01H4.125V38H2.83ZM12.047 38.12C11.327 38.12 10.7587 37.8817 10.342 37.405C9.92536 36.9283 9.71703 36.2767 9.71703 35.45C9.71703 34.9033 9.81203 34.43 10.002 34.03C10.192 33.6267 10.4604 33.3167 10.807 33.1C11.157 32.88 11.5704 32.77 12.047 32.77C12.5204 32.77 12.9304 32.8783 13.277 33.095C13.6237 33.3117 13.8904 33.62 14.077 34.02C14.2637 34.42 14.357 34.895 14.357 35.445C14.357 35.9983 14.2637 36.475 14.077 36.875C13.8937 37.275 13.6287 37.5833 13.282 37.8C12.9354 38.0133 12.5237 38.12 12.047 38.12ZM12.047 36.925C12.3837 36.925 12.6454 36.795 12.832 36.535C13.0187 36.275 13.112 35.9117 13.112 35.445C13.112 34.9783 13.017 34.615 12.827 34.355C12.6404 34.0917 12.3804 33.96 12.047 33.96C11.7104 33.96 11.447 34.0917 11.257 34.355C11.067 34.6183 10.972 34.9833 10.972 35.45C10.972 35.91 11.067 36.2717 11.257 36.535C11.447 36.795 11.7104 36.925 12.047 36.925ZM15.5534 38V32.89H16.8034V33.365C16.9668 33.1583 17.1501 33.0083 17.3534 32.915C17.5601 32.8183 17.7934 32.77 18.0534 32.77C18.3568 32.77 18.6168 32.8317 18.8334 32.955C19.0501 33.0783 19.2184 33.2583 19.3384 33.495C19.5084 33.2617 19.7268 33.0833 19.9934 32.96C20.2601 32.8333 20.5618 32.77 20.8984 32.77C21.5251 32.77 21.9984 32.9383 22.3184 33.275C22.6384 33.6117 22.7984 34.1117 22.7984 34.775V38H21.5534V35.205C21.5534 34.7783 21.4834 34.465 21.3434 34.265C21.2034 34.0617 20.9868 33.96 20.6934 33.96C20.4934 33.96 20.3268 34.005 20.1934 34.095C20.0634 34.185 19.9651 34.3217 19.8984 34.505C19.8318 34.685 19.7984 34.9133 19.7984 35.19V38H18.5534V35.205C18.5534 34.775 18.4851 34.46 18.3484 34.26C18.2118 34.06 17.9951 33.96 17.6984 33.96C17.3951 33.96 17.1701 34.0583 17.0234 34.255C16.8768 34.4517 16.8034 34.7567 16.8034 35.17V38H15.5534ZM26.467 38.12C25.977 38.12 25.5537 38.01 25.197 37.79C24.8437 37.57 24.5704 37.26 24.377 36.86C24.187 36.4567 24.092 35.9833 24.092 35.44C24.092 34.89 24.1887 34.415 24.382 34.015C24.5787 33.615 24.8537 33.3083 25.207 33.095C25.5637 32.8783 25.9837 32.77 26.467 32.77C26.8804 32.77 27.2554 32.8567 27.592 33.03C27.9287 33.2033 28.197 33.47 28.397 33.83C28.597 34.1867 28.697 34.6417 28.697 35.195C28.697 35.2817 28.6937 35.3883 28.687 35.515C28.6837 35.6383 28.6754 35.7633 28.662 35.89H25.327C25.3404 36.1233 25.3937 36.3283 25.487 36.505C25.5837 36.6783 25.7154 36.8133 25.882 36.91C26.0487 37.0067 26.2454 37.055 26.472 37.055C26.7154 37.055 26.927 37.015 27.107 36.935C27.287 36.8517 27.457 36.72 27.617 36.54L28.337 37.285C28.117 37.535 27.852 37.7367 27.542 37.89C27.232 38.0433 26.8737 38.12 26.467 38.12ZM25.332 34.915H27.487C27.4704 34.6917 27.4204 34.5 27.337 34.34C27.2537 34.1767 27.137 34.0517 26.987 33.965C26.837 33.8783 26.6554 33.835 26.442 33.835C26.1487 33.835 25.8987 33.925 25.692 34.105C25.4854 34.285 25.3654 34.555 25.332 34.915Z" fill="#33363F"/>
</svg>
