<svg width="92" height="93" viewBox="0 0 92 93" fill="none" xmlns="http://www.w3.org/2000/svg">
<path d="M83.75 46.5C83.75 67.628 66.8457 84.75 46 84.75C25.1543 84.75 8.25 67.628 8.25 46.5C8.25 25.372 25.1543 8.25 46 8.25C66.8457 8.25 83.75 25.372 83.75 46.5Z" fill="#380CF0" stroke="white" stroke-width="0.5"/>
<path d="M45.08 59V40.835C44.625 41.1267 44.1409 41.3833 43.6275 41.605C43.1259 41.8267 42.5834 41.99 42 42.095L41.615 38.315C42.1167 38.21 42.6767 37.9592 43.295 37.5625C43.9134 37.1658 44.485 36.6992 45.01 36.1625C45.535 35.6142 45.9084 35.06 46.13 34.5H49.56V59H45.08Z" fill="white"/>
<path d="M57.8048 5.6954C49.0913 3.11306 39.7854 3.45755 31.2816 6.67726C22.7778 9.89697 15.5341 15.8185 10.6359 23.5545C5.73774 31.2906 3.44887 40.4245 4.1123 49.5875C4.77574 58.7506 8.35574 67.4494 14.3158 74.3805C20.276 81.3115 28.2952 86.1015 37.1719 88.0327C46.0487 89.9638 55.3048 88.9322 63.5534 85.0923" stroke="white" stroke-width="6" stroke-linecap="round" stroke-linejoin="round"/>
</svg>
