<svg width="31" height="38" viewBox="0 0 31 38" fill="none" xmlns="http://www.w3.org/2000/svg">
<circle cx="15" cy="8" r="4" fill="#33363F"/>
<path d="M8.33788 17.3206C8.99897 14.5269 11.7717 13 14.6426 13H15.3574C18.2283 13 21.001 14.5269 21.6621 17.3206C21.79 17.8611 21.8917 18.4268 21.9489 19.0016C22.0036 19.5512 21.5523 20 21 20H9C8.44772 20 7.99642 19.5512 8.0511 19.0016C8.1083 18.4268 8.20997 17.8611 8.33788 17.3206Z" fill="#33363F"/>
<path d="M0.83 34V27H3.785C4.375 27 4.84333 27.1083 5.19 27.325C5.53667 27.5383 5.785 27.8133 5.935 28.15C6.085 28.4833 6.16 28.8317 6.16 29.195C6.16 29.4483 6.115 29.705 6.025 29.965C5.93833 30.2217 5.8 30.4583 5.61 30.675C5.42333 30.8883 5.17833 31.0617 4.875 31.195C4.575 31.325 4.21167 31.39 3.785 31.39H2.125V34H0.83ZM2.125 30.17H3.845C4.085 30.17 4.27667 30.1217 4.42 30.025C4.56667 29.925 4.67167 29.8 4.735 29.65C4.79833 29.5 4.83 29.3483 4.83 29.195C4.83 29.055 4.8 28.91 4.74 28.76C4.68333 28.6067 4.58333 28.4783 4.44 28.375C4.29667 28.2717 4.09833 28.22 3.845 28.22H2.125V30.17ZM7.16672 34V28.89H8.41672V29.44C8.51005 29.2433 8.65672 29.0833 8.85672 28.96C9.05672 28.8333 9.26672 28.77 9.48672 28.77C9.85005 28.77 10.1567 28.895 10.4067 29.145L10.2317 30.29C10.0951 30.1767 9.96172 30.0967 9.83172 30.05C9.70172 30.0033 9.55839 29.98 9.40172 29.98C9.19505 29.98 9.01839 30.0283 8.87172 30.125C8.72505 30.2217 8.61172 30.3617 8.53172 30.545C8.45505 30.7283 8.41672 30.9483 8.41672 31.205V34H7.16672ZM13.1232 34.12C12.4032 34.12 11.8349 33.8817 11.4182 33.405C11.0015 32.9283 10.7932 32.2767 10.7932 31.45C10.7932 30.9033 10.8882 30.43 11.0782 30.03C11.2682 29.6267 11.5365 29.3167 11.8832 29.1C12.2332 28.88 12.6465 28.77 13.1232 28.77C13.5965 28.77 14.0065 28.8783 14.3532 29.095C14.6999 29.3117 14.9665 29.62 15.1532 30.02C15.3399 30.42 15.4332 30.895 15.4332 31.445C15.4332 31.9983 15.3399 32.475 15.1532 32.875C14.9699 33.275 14.7049 33.5833 14.3582 33.8C14.0115 34.0133 13.5999 34.12 13.1232 34.12ZM13.1232 32.925C13.4599 32.925 13.7215 32.795 13.9082 32.535C14.0949 32.275 14.1882 31.9117 14.1882 31.445C14.1882 30.9783 14.0932 30.615 13.9032 30.355C13.7165 30.0917 13.4565 29.96 13.1232 29.96C12.7865 29.96 12.5232 30.0917 12.3332 30.355C12.1432 30.6183 12.0482 30.9833 12.0482 31.45C12.0482 31.91 12.1432 32.2717 12.3332 32.535C12.5232 32.795 12.7865 32.925 13.1232 32.925ZM16.7644 34V29.985H16.0444V28.89H16.7644V28.1C16.7644 27.7 16.8694 27.3967 17.0794 27.19C17.2927 26.9833 17.601 26.88 18.0044 26.88C18.231 26.88 18.4327 26.9017 18.6094 26.945C18.7894 26.985 18.961 27.0467 19.1244 27.13V28.15C18.9877 28.0933 18.8577 28.05 18.7344 28.02C18.611 27.9867 18.4977 27.97 18.3944 27.97C18.2677 27.97 18.1727 28.0017 18.1094 28.065C18.046 28.125 18.0144 28.2183 18.0144 28.345V28.89H19.1244V29.985H18.0144V34H16.7644ZM20.2694 34V28.89H21.5194V34H20.2694ZM20.8944 28.25C20.6944 28.25 20.521 28.1783 20.3744 28.035C20.231 27.8883 20.1594 27.715 20.1594 27.515C20.1594 27.315 20.231 27.145 20.3744 27.005C20.5177 26.8617 20.691 26.79 20.8944 26.79C21.1044 26.79 21.2794 26.86 21.4194 27C21.5594 27.14 21.6294 27.3117 21.6294 27.515C21.6294 27.7183 21.5577 27.8917 21.4144 28.035C21.2744 28.1783 21.101 28.25 20.8944 28.25ZM23.1347 34V27.345L24.3847 26.78V34H23.1347ZM28.0998 34.12C27.6098 34.12 27.1865 34.01 26.8298 33.79C26.4765 33.57 26.2032 33.26 26.0098 32.86C25.8198 32.4567 25.7248 31.9833 25.7248 31.44C25.7248 30.89 25.8215 30.415 26.0148 30.015C26.2115 29.615 26.4865 29.3083 26.8398 29.095C27.1965 28.8783 27.6165 28.77 28.0998 28.77C28.5132 28.77 28.8882 28.8567 29.2248 29.03C29.5615 29.2033 29.8298 29.47 30.0298 29.83C30.2298 30.1867 30.3298 30.6417 30.3298 31.195C30.3298 31.2817 30.3265 31.3883 30.3198 31.515C30.3165 31.6383 30.3082 31.7633 30.2948 31.89H26.9598C26.9732 32.1233 27.0265 32.3283 27.1198 32.505C27.2165 32.6783 27.3482 32.8133 27.5148 32.91C27.6815 33.0067 27.8782 33.055 28.1048 33.055C28.3482 33.055 28.5598 33.015 28.7398 32.935C28.9198 32.8517 29.0898 32.72 29.2498 32.54L29.9698 33.285C29.7498 33.535 29.4848 33.7367 29.1748 33.89C28.8648 34.0433 28.5065 34.12 28.0998 34.12ZM26.9648 30.915H29.1198C29.1032 30.6917 29.0532 30.5 28.9698 30.34C28.8865 30.1767 28.7698 30.0517 28.6198 29.965C28.4698 29.8783 28.2882 29.835 28.0748 29.835C27.7815 29.835 27.5315 29.925 27.3248 30.105C27.1182 30.285 26.9982 30.555 26.9648 30.915Z" fill="#33363F"/>
</svg>
