<svg width="45" height="40" viewBox="0 0 45 40" fill="none" xmlns="http://www.w3.org/2000/svg">
<path d="M21 9V21" stroke="#33363F" stroke-linecap="round"/>
<path d="M31 9L31 21" stroke="#33363F" stroke-linecap="round"/>
<path d="M11 9L11 21" stroke="#33363F" stroke-linecap="round"/>
<path d="M31 21C31 21 29.8889 18 26 18C22.1111 18 21 21 21 21" stroke="#33363F" stroke-linecap="round"/>
<path d="M21 21C21 21 19.8889 18 16 18C12.1111 18 11 21 11 21" stroke="#33363F" stroke-linecap="round"/>
<path d="M31 9C31 9 29.8889 6 26 6C22.1111 6 21 9 21 9" stroke="#33363F" stroke-linecap="round"/>
<path d="M21 9C21 9 19.8889 6 16 6C12.1111 6 11 9 11 9" stroke="#33363F" stroke-linecap="round"/>
<path d="M2.36 36V30.245H0.375V29H5.65V30.245H3.655V36H2.36ZM8.03148 36.12C7.54148 36.12 7.11815 36.01 6.76148 35.79C6.40815 35.57 6.13482 35.26 5.94148 34.86C5.75148 34.4567 5.65648 33.9833 5.65648 33.44C5.65648 32.89 5.75315 32.415 5.94648 32.015C6.14315 31.615 6.41815 31.3083 6.77148 31.095C7.12815 30.8783 7.54815 30.77 8.03148 30.77C8.44482 30.77 8.81982 30.8567 9.15648 31.03C9.49315 31.2033 9.76148 31.47 9.96148 31.83C10.1615 32.1867 10.2615 32.6417 10.2615 33.195C10.2615 33.2817 10.2582 33.3883 10.2515 33.515C10.2482 33.6383 10.2398 33.7633 10.2265 33.89H6.89148C6.90482 34.1233 6.95815 34.3283 7.05148 34.505C7.14815 34.6783 7.27982 34.8133 7.44648 34.91C7.61315 35.0067 7.80982 35.055 8.03648 35.055C8.27982 35.055 8.49148 35.015 8.67148 34.935C8.85148 34.8517 9.02148 34.72 9.18148 34.54L9.90148 35.285C9.68148 35.535 9.41648 35.7367 9.10648 35.89C8.79648 36.0433 8.43815 36.12 8.03148 36.12ZM6.89648 32.915H9.05148C9.03482 32.6917 8.98482 32.5 8.90148 32.34C8.81815 32.1767 8.70148 32.0517 8.55148 31.965C8.40148 31.8783 8.21982 31.835 8.00648 31.835C7.71315 31.835 7.46315 31.925 7.25648 32.105C7.04982 32.285 6.92982 32.555 6.89648 32.915ZM10.7688 36L12.6288 33.35L10.8938 30.89H12.3338L13.0387 31.9C13.0954 31.98 13.1521 32.0633 13.2088 32.15C13.2688 32.2367 13.3154 32.315 13.3488 32.385C13.3888 32.315 13.4354 32.2367 13.4888 32.15C13.5454 32.06 13.6004 31.9767 13.6538 31.9L14.3688 30.89H15.8138L14.0738 33.35L15.9388 36H14.4938L13.6488 34.81C13.5954 34.7333 13.5421 34.6517 13.4888 34.565C13.4354 34.475 13.3888 34.395 13.3488 34.325C13.3154 34.395 13.2688 34.475 13.2088 34.565C13.1488 34.6517 13.0921 34.7317 13.0387 34.805L12.2088 36H10.7688ZM18.4419 36.12C18.0352 36.12 17.7302 36.0083 17.5269 35.785C17.3235 35.5617 17.2219 35.2283 17.2219 34.785V31.985H16.4769V30.89H17.2219V29.375L18.4619 28.78V30.89H19.6219V31.985H18.4619V34.56C18.4619 34.72 18.4935 34.8383 18.5569 34.915C18.6235 34.9917 18.7269 35.03 18.8669 35.03C19.1135 35.03 19.3835 34.9533 19.6769 34.8L19.5319 35.89C19.3785 35.9667 19.2119 36.0233 19.0319 36.06C18.8519 36.1 18.6552 36.12 18.4419 36.12ZM20.9277 36V29H23.9477C24.5177 29 24.9677 29.0917 25.2977 29.275C25.6277 29.455 25.8627 29.69 26.0027 29.98C26.1427 30.2667 26.2127 30.5667 26.2127 30.88C26.2127 31.1933 26.1443 31.48 26.0077 31.74C25.871 31.9967 25.6477 32.195 25.3377 32.335C25.591 32.425 25.7993 32.555 25.9627 32.725C26.1293 32.8917 26.251 33.0817 26.3277 33.295C26.4077 33.505 26.4477 33.7183 26.4477 33.935C26.4477 34.1817 26.406 34.4283 26.3227 34.675C26.2427 34.9183 26.111 35.14 25.9277 35.34C25.7443 35.54 25.501 35.7 25.1977 35.82C24.8977 35.94 24.5277 36 24.0877 36H20.9277ZM22.2227 34.785H24.1727C24.4227 34.785 24.6177 34.7417 24.7577 34.655C24.901 34.5683 25.001 34.46 25.0577 34.33C25.1177 34.1967 25.1477 34.065 25.1477 33.935C25.1477 33.775 25.1127 33.6233 25.0427 33.48C24.976 33.3333 24.851 33.2133 24.6677 33.12C24.4877 33.0267 24.226 32.98 23.8827 32.98H22.2227V34.785ZM22.2227 31.815H23.7877C24.1677 31.815 24.4477 31.7417 24.6277 31.595C24.811 31.445 24.9027 31.2467 24.9027 31C24.9027 30.8733 24.8793 30.75 24.8327 30.63C24.786 30.5067 24.696 30.405 24.5627 30.325C24.4293 30.245 24.2327 30.205 23.9727 30.205H22.2227V31.815ZM29.9103 36.12C29.1903 36.12 28.622 35.8817 28.2053 35.405C27.7886 34.9283 27.5803 34.2767 27.5803 33.45C27.5803 32.9033 27.6753 32.43 27.8653 32.03C28.0553 31.6267 28.3236 31.3167 28.6703 31.1C29.0203 30.88 29.4336 30.77 29.9103 30.77C30.3836 30.77 30.7936 30.8783 31.1403 31.095C31.487 31.3117 31.7536 31.62 31.9403 32.02C32.127 32.42 32.2203 32.895 32.2203 33.445C32.2203 33.9983 32.127 34.475 31.9403 34.875C31.757 35.275 31.492 35.5833 31.1453 35.8C30.7986 36.0133 30.387 36.12 29.9103 36.12ZM29.9103 34.925C30.247 34.925 30.5086 34.795 30.6953 34.535C30.882 34.275 30.9753 33.9117 30.9753 33.445C30.9753 32.9783 30.8803 32.615 30.6903 32.355C30.5036 32.0917 30.2436 31.96 29.9103 31.96C29.5736 31.96 29.3103 32.0917 29.1203 32.355C28.9303 32.6183 28.8353 32.9833 28.8353 33.45C28.8353 33.91 28.9303 34.2717 29.1203 34.535C29.3103 34.795 29.5736 34.925 29.9103 34.925ZM35.633 36.12C34.913 36.12 34.3446 35.8817 33.928 35.405C33.5113 34.9283 33.303 34.2767 33.303 33.45C33.303 32.9033 33.398 32.43 33.588 32.03C33.778 31.6267 34.0463 31.3167 34.393 31.1C34.743 30.88 35.1563 30.77 35.633 30.77C36.1063 30.77 36.5163 30.8783 36.863 31.095C37.2096 31.3117 37.4763 31.62 37.663 32.02C37.8496 32.42 37.943 32.895 37.943 33.445C37.943 33.9983 37.8496 34.475 37.663 34.875C37.4796 35.275 37.2146 35.5833 36.868 35.8C36.5213 36.0133 36.1096 36.12 35.633 36.12ZM35.633 34.925C35.9696 34.925 36.2313 34.795 36.418 34.535C36.6046 34.275 36.698 33.9117 36.698 33.445C36.698 32.9783 36.603 32.615 36.413 32.355C36.2263 32.0917 35.9663 31.96 35.633 31.96C35.2963 31.96 35.033 32.0917 34.843 32.355C34.653 32.6183 34.558 32.9833 34.558 33.45C34.558 33.91 34.653 34.2717 34.843 34.535C35.033 34.795 35.2963 34.925 35.633 34.925ZM39.237 36V29.365L40.487 28.78V32.345L41.907 30.89H43.387L41.907 32.36L43.787 36H42.427L40.992 33.25L40.487 33.75V36H39.237Z" fill="#33363F"/>
</svg>
